<svg id="svg" version="1.1" xmlns="http://www.w3.org/2000/svg" xmlns:xlink="http://www.w3.org/1999/xlink" width="400" height="400" viewBox="0, 0, 400,400"><g id="svgg"><path id="path0" d="M189.844 32.257 C 189.092 32.342,186.279 32.607,183.594 32.846 C 69.381 43.003,0.473 167.603,51.713 271.317 C 101.411 371.912,236.001 394.562,316.339 315.851 C 404.170 229.799,370.142 80.335,253.711 40.765 C 234.828 34.347,205.710 30.468,189.844 32.257 M79.858 65.332 L 78.711 66.602 79.980 65.454 C 81.164 64.385,81.430 64.063,81.128 64.063 C 81.061 64.063,80.489 64.634,79.858 65.332 M319.141 64.185 C 319.141 64.252,319.712 64.823,320.410 65.454 L 321.680 66.602 320.532 65.332 C 319.463 64.149,319.141 63.883,319.141 64.185 M73.618 71.191 L 71.680 73.242 73.730 71.304 C 75.636 69.503,75.960 69.141,75.669 69.141 C 75.607 69.141,74.684 70.063,73.618 71.191 M326.367 71.094 C 327.425 72.168,328.379 73.047,328.486 73.047 C 328.594 73.047,327.816 72.168,326.758 71.094 C 325.700 70.020,324.746 69.141,324.639 69.141 C 324.531 69.141,325.309 70.020,326.367 71.094 M67.749 77.441 L 66.602 78.711 67.871 77.564 C 69.054 76.494,69.320 76.172,69.018 76.172 C 68.951 76.172,68.380 76.743,67.749 77.441 M331.250 76.294 C 331.250 76.361,331.821 76.933,332.520 77.564 L 333.789 78.711 332.642 77.441 C 331.572 76.258,331.250 75.992,331.250 76.294 M179.264 126.377 C 179.604 126.704,182.520 129.061,185.742 131.614 C 188.965 134.167,192.065 136.712,192.631 137.269 C 193.197 137.826,193.766 138.281,193.896 138.281 C 194.026 138.281,194.441 138.538,194.820 138.852 C 195.198 139.167,197.441 141.033,199.805 142.999 C 202.168 144.966,204.805 147.040,205.664 147.609 C 206.523 148.177,207.775 149.168,208.446 149.810 C 209.709 151.018,213.088 153.516,213.460 153.516 C 213.577 153.516,213.672 148.743,213.672 142.909 C 213.672 132.411,213.682 132.281,214.647 130.241 C 216.076 127.220,219.649 125.014,221.010 126.313 C 222.159 127.408,229.601 133.440,231.506 134.819 C 232.503 135.542,233.803 136.616,234.395 137.207 C 234.986 137.798,235.573 138.281,235.699 138.281 C 235.825 138.281,236.238 138.538,236.617 138.851 C 236.995 139.164,239.678 141.353,242.578 143.715 C 245.479 146.077,248.610 148.677,249.536 149.493 C 250.463 150.309,251.463 151.064,251.760 151.172 C 252.056 151.279,253.055 152.004,253.981 152.782 C 260.600 158.347,262.870 160.156,263.235 160.156 C 263.465 160.156,263.942 160.596,264.294 161.133 C 264.646 161.670,265.089 162.109,265.279 162.109 C 265.638 162.109,266.239 162.577,268.348 164.494 C 269.032 165.116,269.675 165.625,269.777 165.625 C 269.948 165.625,274.535 169.360,279.619 173.640 C 283.494 176.903,283.200 178.521,283.225 153.809 C 283.250 129.452,283.167 130.170,286.230 127.617 C 290.098 124.394,294.205 125.944,296.092 131.338 C 296.862 133.537,296.875 134.545,296.875 191.968 L 296.875 250.361 296.036 252.603 C 293.897 258.320,288.967 259.554,285.236 255.304 C 283.074 252.842,283.064 252.733,282.911 229.785 C 282.753 206.109,282.936 207.361,280.027 210.059 C 279.158 210.864,278.155 211.685,277.798 211.883 C 277.441 212.080,274.833 214.145,272.002 216.472 C 269.172 218.799,266.727 220.703,266.568 220.703 C 266.410 220.703,265.825 221.194,265.269 221.793 C 264.713 222.393,263.818 223.159,263.281 223.496 C 262.446 224.021,254.416 230.443,251.627 232.817 C 251.125 233.244,250.574 233.594,250.402 233.594 C 250.230 233.594,249.802 234.033,249.450 234.570 C 249.098 235.107,248.567 235.547,248.269 235.547 C 247.971 235.547,246.914 236.338,245.919 237.305 C 244.925 238.271,244.007 239.063,243.881 239.063 C 243.754 239.063,242.201 240.293,240.430 241.797 C 238.658 243.301,237.030 244.531,236.810 244.531 C 236.591 244.531,236.311 244.795,236.187 245.117 C 236.063 245.439,235.735 245.703,235.458 245.703 C 235.180 245.703,234.746 246.035,234.493 246.440 C 234.240 246.846,233.187 247.747,232.153 248.443 C 231.119 249.139,229.922 250.051,229.492 250.470 C 221.324 258.433,217.423 259.369,214.780 254.001 C 213.906 252.228,213.859 251.678,213.672 241.211 C 213.564 235.195,213.346 230.320,213.187 230.376 C 212.367 230.669,209.032 233.168,207.982 234.277 C 207.321 234.976,206.649 235.547,206.488 235.547 C 206.328 235.547,204.349 237.085,202.091 238.965 C 199.834 240.845,197.165 243.047,196.161 243.859 C 195.157 244.671,193.984 245.653,193.555 246.042 C 193.125 246.430,191.807 247.422,190.625 248.246 C 189.443 249.069,187.598 250.498,186.523 251.420 C 177.457 259.204,175.853 259.520,173.049 254.072 L 172.070 252.169 171.969 192.603 C 171.877 138.400,171.925 132.859,172.505 131.069 C 173.164 129.036,174.760 126.953,175.659 126.953 C 175.941 126.953,176.172 126.790,176.172 126.590 C 176.172 126.277,176.786 126.058,178.288 125.834 C 178.484 125.805,178.924 126.049,179.264 126.377 M152.537 143.392 C 158.365 144.469,166.450 148.479,165.667 149.903 C 164.457 152.105,164.565 152.102,160.415 150.016 C 149.904 144.733,141.353 145.551,120.703 153.814 C 102.858 160.955,95.168 161.586,86.490 156.621 L 84.375 155.411 84.375 153.320 L 84.375 151.228 87.207 152.948 C 95.165 157.783,103.017 157.059,121.028 149.831 C 136.883 143.468,144.514 141.909,152.537 143.392 M154.180 159.590 C 159.439 160.881,165.916 164.367,165.263 165.554 C 164.041 167.773,164.152 167.771,160.149 165.672 C 149.602 160.143,141.590 160.838,121.069 169.063 C 103.030 176.293,95.940 177.019,86.816 172.568 L 84.375 171.377 84.375 169.244 L 84.375 167.111 85.645 167.946 C 94.454 173.738,100.969 173.303,120.508 165.618 C 138.000 158.738,145.350 157.423,154.180 159.590 M154.180 177.559 C 159.439 178.850,165.916 182.335,165.263 183.522 C 164.041 185.742,164.152 185.740,160.149 183.641 C 149.602 178.112,141.590 178.807,121.069 187.032 C 104.910 193.509,98.147 194.595,90.329 191.971 C 84.991 190.179,83.984 189.368,83.984 186.858 L 83.984 184.728 85.645 185.865 C 94.206 191.730,100.921 191.291,120.508 183.587 C 138.000 176.707,145.350 175.391,154.180 177.559 M154.571 196.309 C 159.829 197.600,166.306 201.085,165.653 202.272 C 164.432 204.492,164.542 204.490,160.539 202.391 C 149.993 196.862,141.980 197.557,121.460 205.782 C 105.301 212.259,98.538 213.345,90.719 210.721 C 85.381 208.929,84.375 208.118,84.375 205.608 L 84.375 203.478 86.035 204.615 C 94.597 210.480,101.311 210.041,120.898 202.337 C 138.391 195.457,145.741 194.141,154.571 196.309 M153.790 216.622 C 159.048 217.913,165.525 221.398,164.872 222.585 C 163.651 224.805,163.761 224.802,159.758 222.703 C 149.212 217.174,141.199 217.869,120.679 226.094 C 104.492 232.582,97.763 233.659,89.895 231.020 C 85.090 229.408,84.375 228.826,84.375 226.531 C 84.375 224.242,84.142 224.290,86.964 225.992 C 94.640 230.621,101.655 229.914,120.117 222.651 C 137.606 215.770,144.959 214.454,153.790 216.622 M154.571 237.325 C 159.829 238.616,166.306 242.101,165.653 243.288 C 164.432 245.508,164.542 245.505,160.539 243.406 C 149.993 237.877,141.980 238.573,121.460 246.797 C 105.102 253.354,98.426 254.394,90.447 251.628 C 85.222 249.817,83.984 248.831,83.984 246.479 C 83.984 244.195,83.956 244.207,86.062 245.650 C 94.594 251.493,101.331 251.049,120.898 243.353 C 138.391 236.473,145.741 235.157,154.571 237.325 " stroke="none" fill="#143454" fill-rule="evenodd"></path><path id="path1" d="M227.170 153.428 C 226.796 153.803,226.972 230.044,227.348 230.276 C 227.613 230.440,243.016 218.248,272.027 194.913 C 273.770 193.511,275.195 192.182,275.195 191.959 C 275.195 191.736,272.383 189.283,268.945 186.507 C 265.508 183.732,262.344 181.163,261.914 180.798 C 261.235 180.223,259.791 179.075,252.759 173.521 C 252.021 172.938,246.017 168.123,239.417 162.821 C 232.818 157.519,227.306 153.293,227.170 153.428 M185.547 191.992 C 185.547 213.154,185.630 230.469,185.731 230.469 C 185.832 230.469,192.116 225.497,199.696 219.421 L 213.477 208.373 213.571 192.175 C 213.622 183.266,213.535 175.796,213.375 175.575 C 212.980 175.028,186.068 153.516,185.778 153.516 C 185.651 153.516,185.547 170.830,185.547 191.992 " stroke="none" fill="#cbfbcc" fill-rule="evenodd"></path><path id="path2" d="M175.941 126.950 C 171.960 128.818,172.243 123.625,172.360 192.592 L 172.461 252.539 173.380 254.406 C 175.305 258.316,178.817 258.372,182.421 254.551 C 183.160 253.767,183.969 253.125,184.219 253.125 C 184.468 253.125,185.392 252.426,186.272 251.572 C 187.152 250.717,188.887 249.324,190.128 248.476 C 191.368 247.628,192.899 246.394,193.530 245.733 C 194.161 245.072,194.874 244.531,195.113 244.531 C 195.353 244.531,196.285 243.803,197.184 242.913 C 198.083 242.023,199.328 240.924,199.950 240.471 C 200.573 240.019,202.323 238.638,203.841 237.402 C 205.358 236.167,206.742 235.156,206.916 235.156 C 207.091 235.156,207.445 234.818,207.704 234.404 C 207.962 233.990,209.015 233.086,210.044 232.394 C 211.072 231.702,212.197 230.786,212.542 230.359 C 213.674 228.956,213.861 230.341,214.063 241.602 C 214.285 254.087,214.578 255.420,217.396 256.763 C 219.752 257.887,221.237 257.445,223.946 254.817 C 224.766 254.020,225.765 253.182,226.166 252.954 C 227.199 252.366,232.672 247.974,234.795 246.030 C 235.777 245.131,236.843 244.293,237.163 244.170 C 237.483 244.046,238.612 243.211,239.673 242.312 C 245.503 237.376,248.295 235.174,248.730 235.165 C 248.999 235.160,249.219 234.980,249.219 234.765 C 249.219 234.550,250.309 233.570,251.642 232.589 C 252.975 231.608,254.304 230.466,254.594 230.051 C 254.885 229.636,255.345 229.297,255.616 229.297 C 255.888 229.297,256.936 228.506,257.945 227.539 C 258.954 226.572,259.874 225.781,259.989 225.781 C 260.298 225.781,265.341 221.712,265.966 220.959 C 266.261 220.604,266.707 220.313,266.959 220.313 C 267.210 220.313,268.192 219.521,269.141 218.555 C 270.089 217.588,271.049 216.797,271.274 216.797 C 271.498 216.797,272.506 216.050,273.513 215.137 C 274.521 214.224,275.981 213.037,276.758 212.500 C 277.535 211.963,278.995 210.773,280.003 209.857 C 283.188 206.961,282.980 205.672,283.224 229.888 C 283.365 243.976,283.588 251.792,283.870 252.602 C 285.925 258.497,292.754 259.294,295.268 253.934 L 296.289 251.758 296.289 191.797 L 296.289 131.836 295.313 129.883 C 292.857 124.972,286.633 125.184,284.328 130.257 C 283.660 131.728,283.610 133.330,283.602 153.626 C 283.595 172.219,283.511 175.447,283.032 175.631 C 282.218 175.943,281.854 175.691,276.351 170.996 C 275.659 170.405,274.890 169.922,274.643 169.922 C 274.396 169.922,274.091 169.652,273.964 169.322 C 273.837 168.992,272.613 167.922,271.242 166.944 C 269.871 165.966,268.750 165.035,268.750 164.875 C 268.750 164.715,267.860 164.008,266.773 163.304 C 265.686 162.599,264.589 161.691,264.335 161.285 C 264.082 160.879,263.727 160.547,263.546 160.547 C 263.184 160.547,260.129 158.171,258.594 156.695 C 258.057 156.179,256.914 155.318,256.055 154.783 C 255.195 154.248,254.084 153.305,253.585 152.687 C 253.086 152.068,252.471 151.562,252.218 151.561 C 251.965 151.560,250.916 150.813,249.887 149.901 C 248.858 148.988,247.315 147.715,246.459 147.070 C 245.603 146.426,244.073 145.151,243.058 144.238 C 242.043 143.325,241.005 142.578,240.752 142.578 C 240.498 142.578,239.920 142.106,239.466 141.530 C 239.013 140.953,237.989 140.052,237.192 139.527 C 236.395 139.002,235.303 138.153,234.766 137.640 C 233.206 136.149,229.807 133.594,229.384 133.594 C 229.170 133.594,228.726 133.181,228.396 132.677 C 228.066 132.174,226.903 131.188,225.812 130.488 C 224.721 129.788,223.828 129.070,223.828 128.893 C 223.828 128.514,220.446 126.172,219.898 126.172 C 218.287 126.172,215.931 127.961,215.028 129.871 C 214.074 131.887,214.063 132.038,214.063 142.690 C 214.063 153.460,213.874 154.985,212.734 153.447 C 212.498 153.129,211.338 152.203,210.156 151.390 C 208.975 150.576,207.827 149.686,207.605 149.412 C 207.100 148.786,203.589 146.094,203.278 146.094 C 203.151 146.094,202.244 145.303,201.264 144.336 C 200.283 143.369,199.259 142.578,198.987 142.578 C 198.716 142.578,198.123 142.106,197.669 141.530 C 197.216 140.953,196.192 140.052,195.395 139.527 C 194.598 139.002,193.506 138.153,192.969 137.639 C 191.723 136.447,186.389 132.223,184.034 130.562 C 183.040 129.862,182.169 129.118,182.099 128.909 C 181.477 127.064,178.033 125.969,175.941 126.950 M139.599 143.912 C 135.258 144.736,129.686 146.590,120.637 150.222 C 102.704 157.419,95.441 158.104,87.598 153.339 L 84.766 151.618 84.766 153.527 C 84.766 156.681,89.611 158.934,97.125 159.273 C 104.048 159.586,108.268 158.556,121.094 153.424 C 142.584 144.824,151.916 144.233,162.291 150.812 C 164.047 151.926,164.174 151.951,164.680 151.287 C 166.205 149.284,165.896 148.836,161.523 146.709 C 155.219 143.644,146.721 142.559,139.599 143.912 M252.759 173.521 C 259.791 179.075,261.235 180.223,261.914 180.798 C 262.344 181.163,265.508 183.732,268.945 186.507 C 272.383 189.283,275.195 191.736,275.195 191.959 C 275.195 192.182,273.770 193.511,272.027 194.913 C 243.016 218.248,227.613 230.440,227.348 230.276 C 226.972 230.044,226.796 153.803,227.170 153.428 C 227.306 153.293,232.818 157.519,239.417 162.821 C 246.017 168.123,252.021 172.938,252.759 173.521 M199.548 164.345 C 206.994 170.301,213.216 175.355,213.375 175.575 C 213.535 175.796,213.622 183.266,213.571 192.175 L 213.477 208.373 199.696 219.421 C 192.116 225.497,185.832 230.469,185.731 230.469 C 185.630 230.469,185.547 213.154,185.547 191.992 C 185.547 170.830,185.651 153.516,185.778 153.516 C 185.905 153.516,192.102 158.389,199.548 164.345 M140.039 159.618 C 134.584 160.602,130.995 161.778,118.945 166.530 C 101.670 173.342,94.267 173.903,86.795 168.965 L 84.724 167.595 84.842 169.432 C 84.980 171.570,86.097 172.424,90.599 173.839 C 98.127 176.204,105.486 175.007,120.374 168.996 C 141.295 160.550,149.126 159.799,159.917 165.205 L 163.780 167.140 164.494 166.285 C 165.483 165.100,165.473 165.079,163.277 163.669 C 157.173 159.752,148.082 158.167,140.039 159.618 M140.039 177.587 C 134.584 178.571,130.995 179.747,118.945 184.499 C 101.660 191.315,94.269 191.873,86.782 186.925 C 84.214 185.228,84.375 185.206,84.375 187.250 C 84.375 188.926,84.412 188.973,86.621 190.143 C 95.108 194.636,103.280 193.866,120.374 186.965 C 141.295 178.519,149.126 177.768,159.917 183.174 L 163.780 185.109 164.494 184.254 C 165.483 183.069,165.473 183.047,163.277 181.638 C 157.173 177.721,148.082 176.136,140.039 177.587 M140.430 196.337 C 134.975 197.321,131.385 198.497,119.336 203.249 C 102.051 210.065,94.659 210.623,87.173 205.675 C 84.605 203.978,84.766 203.956,84.766 206.000 C 84.766 207.676,84.803 207.723,87.012 208.893 C 95.499 213.386,103.671 212.616,120.764 205.715 C 141.685 197.269,149.517 196.518,160.308 201.924 L 164.171 203.859 164.885 203.004 C 165.874 201.819,165.864 201.797,163.668 200.388 C 157.564 196.471,148.473 194.886,140.430 196.337 M139.648 216.649 C 134.193 217.633,130.604 218.809,118.555 223.561 C 101.571 230.259,94.585 230.883,87.022 226.378 L 84.766 225.033 84.766 226.768 C 84.766 228.445,84.827 228.534,86.621 229.442 C 94.942 233.656,103.176 232.813,119.983 226.028 C 140.904 217.581,148.736 216.830,159.527 222.236 L 163.390 224.171 164.104 223.316 C 165.093 222.131,165.083 222.110,162.886 220.700 C 156.782 216.783,147.691 215.199,139.648 216.649 M140.430 237.353 C 134.975 238.336,131.385 239.513,119.336 244.264 C 100.923 251.526,94.146 251.761,85.254 245.450 C 84.379 244.830,84.375 244.836,84.375 246.624 C 84.375 248.382,84.420 248.448,86.426 249.606 C 94.808 254.444,103.451 253.721,120.764 246.731 C 141.685 238.284,149.517 237.534,160.308 242.939 L 164.171 244.875 164.885 244.019 C 165.874 242.835,165.864 242.813,163.668 241.404 C 157.564 237.487,148.473 235.902,140.430 237.353 " stroke="none" fill="#64ccfb" fill-rule="evenodd"></path><path id="path3" d="M186.719 16.460 C 50.810 26.581,-28.216 174.573,38.963 293.164 C 114.124 425.848,311.240 414.595,370.818 274.219 C 425.004 146.548,324.750 6.182,186.719 16.460 M218.351 32.599 C 351.696 48.205,413.170 205.953,325.143 306.641 C 258.844 382.475,141.546 382.475,75.248 306.641 C 1.045 221.766,31.402 89.307,135.237 44.887 C 150.319 38.435,168.297 33.850,183.984 32.455 C 186.670 32.216,189.482 31.951,190.234 31.866 C 193.461 31.501,213.418 32.022,218.351 32.599 M81.250 64.185 C 81.250 64.252,80.679 64.823,79.980 65.454 L 78.711 66.602 79.858 65.332 C 80.928 64.149,81.250 63.883,81.250 64.185 M320.532 65.332 L 321.680 66.602 320.410 65.454 C 319.227 64.385,318.961 64.063,319.263 64.063 C 319.330 64.063,319.901 64.634,320.532 65.332 M75.781 69.253 C 75.781 69.315,74.858 70.238,73.730 71.304 L 71.680 73.242 73.618 71.191 C 75.419 69.286,75.781 68.961,75.781 69.253 M326.758 71.094 C 327.816 72.168,328.594 73.047,328.486 73.047 C 328.379 73.047,327.425 72.168,326.367 71.094 C 325.309 70.020,324.531 69.141,324.639 69.141 C 324.746 69.141,325.700 70.020,326.758 71.094 M69.141 76.294 C 69.141 76.361,68.569 76.933,67.871 77.564 L 66.602 78.711 67.749 77.441 C 68.818 76.258,69.141 75.992,69.141 76.294 M332.642 77.441 L 333.789 78.711 332.520 77.564 C 331.821 76.933,331.250 76.361,331.250 76.294 C 331.250 75.992,331.572 76.258,332.642 77.441 " stroke="none" fill="#040504" fill-rule="evenodd"></path><path id="path4" d="M195.605 31.932 C 198.022 32.001,201.978 32.001,204.395 31.932 C 206.812 31.864,204.834 31.808,200.000 31.808 C 195.166 31.808,193.188 31.864,195.605 31.932 M187.003 32.313 C 187.696 32.399,188.927 32.401,189.737 32.316 C 190.548 32.232,189.980 32.161,188.477 32.159 C 186.973 32.158,186.310 32.227,187.003 32.313 M210.254 32.316 C 211.060 32.400,212.378 32.400,213.184 32.316 C 213.989 32.232,213.330 32.163,211.719 32.163 C 210.107 32.163,209.448 32.232,210.254 32.316 M182.916 32.702 C 183.509 32.792,184.388 32.790,184.869 32.697 C 185.349 32.604,184.863 32.531,183.789 32.534 C 182.715 32.537,182.322 32.612,182.916 32.702 M215.728 32.702 C 216.322 32.792,217.201 32.790,217.681 32.697 C 218.162 32.604,217.676 32.531,216.602 32.534 C 215.527 32.537,215.134 32.612,215.728 32.702 M179.199 33.088 C 179.683 33.181,180.474 33.181,180.957 33.088 C 181.440 32.995,181.045 32.919,180.078 32.919 C 179.111 32.919,178.716 32.995,179.199 33.088 M219.434 33.088 C 219.917 33.181,220.708 33.181,221.191 33.088 C 221.675 32.995,221.279 32.919,220.313 32.919 C 219.346 32.919,218.950 32.995,219.434 33.088 M176.270 33.472 C 176.646 33.571,177.261 33.571,177.637 33.472 C 178.013 33.374,177.705 33.294,176.953 33.294 C 176.201 33.294,175.894 33.374,176.270 33.472 M222.754 33.472 C 223.130 33.571,223.745 33.571,224.121 33.472 C 224.497 33.374,224.189 33.294,223.438 33.294 C 222.686 33.294,222.378 33.374,222.754 33.472 M288.477 126.172 C 287.481 126.600,288.508 126.600,289.844 126.172 C 290.629 125.920,290.667 125.857,290.039 125.848 C 289.609 125.841,288.906 125.987,288.477 126.172 M296.388 179.566 C 296.442 205.951,296.533 232.813,296.589 239.258 C 296.645 245.703,296.715 224.521,296.744 192.188 C 296.773 159.854,296.683 132.992,296.543 132.496 C 296.403 131.999,296.333 153.181,296.388 179.566 M213.763 142.718 C 213.678 152.899,213.628 153.582,212.988 153.339 C 212.440 153.130,212.401 153.176,212.793 153.571 C 213.919 154.705,214.075 153.238,213.965 142.552 L 213.854 131.836 213.763 142.718 M283.297 153.585 C 283.209 173.924,283.159 175.345,282.520 175.512 C 281.879 175.679,281.880 175.693,282.532 175.736 C 283.616 175.807,283.607 176.016,283.497 153.320 L 283.392 131.836 283.297 153.585 M172.065 191.992 C 172.065 224.863,172.112 238.253,172.168 221.747 C 172.224 205.241,172.224 178.346,172.168 161.981 C 172.112 145.616,172.065 159.121,172.065 191.992 M144.629 143.257 C 145.864 143.335,147.886 143.335,149.121 143.257 C 150.356 143.180,149.346 143.116,146.875 143.116 C 144.404 143.116,143.394 143.180,144.629 143.257 M140.332 143.629 C 140.708 143.727,141.323 143.727,141.699 143.629 C 142.075 143.530,141.768 143.450,141.016 143.450 C 140.264 143.450,139.956 143.530,140.332 143.629 M144.434 146.774 C 145.776 146.850,147.974 146.850,149.316 146.774 C 150.659 146.697,149.561 146.635,146.875 146.635 C 144.189 146.635,143.091 146.697,144.434 146.774 M84.420 153.200 C 84.395 154.422,84.507 155.504,84.668 155.604 C 84.829 155.703,84.908 154.967,84.844 153.967 C 84.661 151.114,84.470 150.768,84.420 153.200 M253.743 152.872 C 253.933 153.368,255.859 154.938,255.859 154.598 C 255.859 154.538,255.332 153.992,254.687 153.383 C 254.042 152.774,253.617 152.545,253.743 152.872 M96.596 156.148 C 97.839 156.226,99.773 156.226,100.893 156.147 C 102.013 156.068,100.996 156.005,98.633 156.005 C 96.270 156.006,95.353 156.071,96.596 156.148 M144.835 158.880 C 145.753 158.963,147.160 158.962,147.960 158.878 C 148.760 158.794,148.008 158.726,146.289 158.728 C 144.570 158.729,143.916 158.798,144.835 158.880 M141.113 159.254 C 141.489 159.352,142.104 159.352,142.480 159.254 C 142.856 159.155,142.549 159.075,141.797 159.075 C 141.045 159.075,140.737 159.155,141.113 159.254 M152.334 159.583 C 153.939 159.874,155.314 160.051,155.388 159.977 C 155.607 159.758,151.616 158.981,150.469 159.020 C 149.889 159.039,150.728 159.293,152.334 159.583 M96.596 159.664 C 97.839 159.742,99.773 159.741,100.893 159.662 C 102.013 159.584,100.996 159.520,98.633 159.521 C 96.270 159.522,95.353 159.586,96.596 159.664 M137.500 159.766 C 136.187 160.186,137.605 160.186,139.258 159.766 C 140.310 159.498,140.330 159.467,139.453 159.460 C 138.916 159.456,138.037 159.594,137.500 159.766 M134.570 160.547 C 134.078 160.758,134.006 160.883,134.375 160.883 C 134.697 160.883,135.313 160.732,135.742 160.547 C 136.235 160.335,136.307 160.211,135.938 160.211 C 135.615 160.211,135.000 160.362,134.570 160.547 M131.836 161.328 C 131.344 161.540,131.271 161.664,131.641 161.664 C 131.963 161.664,132.578 161.513,133.008 161.328 C 133.500 161.117,133.572 160.992,133.203 160.992 C 132.881 160.992,132.266 161.143,131.836 161.328 M128.589 162.376 C 127.662 162.704,126.973 163.041,127.058 163.125 C 127.236 163.304,130.859 162.114,130.859 161.877 C 130.859 161.633,130.415 161.730,128.589 162.376 M145.020 162.003 C 145.825 162.088,147.144 162.088,147.949 162.003 C 148.755 161.919,148.096 161.850,146.484 161.850 C 144.873 161.850,144.214 161.919,145.020 162.003 M141.313 162.386 C 141.799 162.479,142.502 162.476,142.876 162.378 C 143.249 162.280,142.852 162.204,141.992 162.208 C 141.133 162.212,140.827 162.292,141.313 162.386 M150.098 162.379 C 150.474 162.477,151.089 162.477,151.465 162.379 C 151.841 162.280,151.533 162.200,150.781 162.200 C 150.029 162.200,149.722 162.280,150.098 162.379 M153.125 162.891 C 154.461 163.318,155.488 163.318,154.492 162.891 C 154.063 162.706,153.359 162.560,152.930 162.566 C 152.302 162.576,152.340 162.639,153.125 162.891 M136.133 163.281 C 135.137 163.709,136.164 163.709,137.500 163.281 C 138.285 163.030,138.323 162.966,137.695 162.957 C 137.266 162.951,136.563 163.097,136.133 163.281 M162.500 163.012 C 162.500 163.103,163.247 163.670,164.160 164.272 C 165.073 164.875,165.614 165.118,165.362 164.813 C 164.877 164.226,162.500 162.730,162.500 163.012 M133.398 164.063 C 132.906 164.274,132.834 164.398,133.203 164.398 C 133.525 164.398,134.141 164.247,134.570 164.063 C 135.063 163.851,135.135 163.727,134.766 163.727 C 134.443 163.727,133.828 163.878,133.398 164.063 M160.111 165.632 C 164.438 167.930,163.830 167.812,164.627 166.504 L 165.281 165.430 164.513 166.307 L 163.745 167.184 160.486 165.435 C 158.693 164.472,157.051 163.685,156.836 163.686 C 156.621 163.686,158.095 164.562,160.111 165.632 M130.664 165.053 C 129.687 165.523,129.655 165.578,130.469 165.379 C 131.576 165.108,132.820 164.474,132.227 164.483 C 132.012 164.486,131.309 164.742,130.664 165.053 M124.104 167.449 C 122.214 168.217,120.734 168.911,120.813 168.990 C 120.952 169.129,127.759 166.494,128.092 166.173 C 128.514 165.766,127.252 166.169,124.104 167.449 M84.445 169.196 C 84.390 170.923,84.514 171.454,85.016 171.647 C 85.508 171.836,85.560 171.775,85.236 171.386 C 85.005 171.107,84.748 170.004,84.666 168.935 L 84.516 166.992 84.445 169.196 M87.500 169.332 C 87.500 169.600,89.892 170.785,90.070 170.607 C 90.155 170.522,89.612 170.160,88.862 169.803 C 88.113 169.446,87.500 169.234,87.500 169.332 M107.617 170.313 C 107.125 170.524,107.053 170.648,107.422 170.648 C 107.744 170.648,108.359 170.497,108.789 170.313 C 109.281 170.101,109.354 169.977,108.984 169.977 C 108.662 169.977,108.047 170.128,107.617 170.313 M104.688 171.094 C 103.902 171.345,103.864 171.409,104.492 171.418 C 104.922 171.424,105.625 171.278,106.055 171.094 C 107.050 170.666,106.023 170.666,104.688 171.094 M114.648 171.303 C 113.672 171.773,113.639 171.828,114.453 171.629 C 115.560 171.358,116.804 170.724,116.211 170.733 C 115.996 170.736,115.293 170.992,114.648 171.303 M101.660 171.754 C 102.036 171.852,102.651 171.852,103.027 171.754 C 103.403 171.655,103.096 171.575,102.344 171.575 C 101.592 171.575,101.284 171.655,101.660 171.754 M96.582 172.160 C 97.388 172.244,98.706 172.244,99.512 172.160 C 100.317 172.075,99.658 172.006,98.047 172.006 C 96.436 172.006,95.776 172.075,96.582 172.160 M36.036 174.023 C 36.040 174.883,36.120 175.188,36.214 174.702 C 36.307 174.217,36.304 173.513,36.206 173.140 C 36.108 172.767,36.032 173.164,36.036 174.023 M364.153 173.828 C 364.153 174.580,364.234 174.888,364.332 174.512 C 364.430 174.136,364.430 173.521,364.332 173.145 C 364.234 172.769,364.153 173.076,364.153 173.828 M107.227 173.644 C 106.367 173.927,106.016 174.159,106.445 174.159 C 106.875 174.159,107.842 173.922,108.594 173.633 C 110.347 172.958,109.282 172.966,107.227 173.644 M93.457 174.879 C 93.833 174.977,94.448 174.977,94.824 174.879 C 95.200 174.780,94.893 174.700,94.141 174.700 C 93.389 174.700,93.081 174.780,93.457 174.879 M96.973 175.285 C 97.778 175.369,99.097 175.369,99.902 175.285 C 100.708 175.200,100.049 175.131,98.438 175.131 C 96.826 175.131,96.167 175.200,96.973 175.285 M364.560 176.953 C 364.560 177.920,364.636 178.315,364.729 177.832 C 364.822 177.349,364.822 176.558,364.729 176.074 C 364.636 175.591,364.560 175.986,364.560 176.953 M35.645 177.148 C 35.650 178.008,35.730 178.313,35.823 177.827 C 35.917 177.342,35.913 176.638,35.815 176.265 C 35.717 175.892,35.641 176.289,35.645 177.148 M144.835 176.849 C 145.753 176.932,147.160 176.930,147.960 176.846 C 148.760 176.763,148.008 176.695,146.289 176.696 C 144.570 176.698,143.916 176.767,144.835 176.849 M141.113 177.222 C 141.489 177.321,142.104 177.321,142.480 177.222 C 142.856 177.124,142.549 177.044,141.797 177.044 C 141.045 177.044,140.737 177.124,141.113 177.222 M152.334 177.552 C 153.939 177.842,155.314 178.019,155.388 177.945 C 155.607 177.726,151.616 176.950,150.469 176.988 C 149.889 177.008,150.728 177.261,152.334 177.552 M137.500 177.734 C 136.187 178.155,137.605 178.155,139.258 177.734 C 140.310 177.467,140.330 177.435,139.453 177.429 C 138.916 177.425,138.037 177.562,137.500 177.734 M134.570 178.516 C 134.078 178.727,134.006 178.851,134.375 178.851 C 134.697 178.851,135.313 178.700,135.742 178.516 C 136.235 178.304,136.307 178.180,135.938 178.180 C 135.615 178.180,135.000 178.331,134.570 178.516 M35.268 180.664 C 35.271 181.738,35.347 182.131,35.437 181.538 C 35.526 180.944,35.524 180.065,35.431 179.584 C 35.339 179.104,35.265 179.590,35.268 180.664 M131.836 179.297 C 131.344 179.508,131.271 179.633,131.641 179.633 C 131.963 179.633,132.578 179.482,133.008 179.297 C 133.500 179.085,133.572 178.961,133.203 178.961 C 132.881 178.961,132.266 179.112,131.836 179.297 M364.955 180.664 C 364.958 181.738,365.034 182.131,365.124 181.538 C 365.214 180.944,365.211 180.065,365.119 179.584 C 365.026 179.104,364.953 179.590,364.955 180.664 M128.589 180.345 C 127.662 180.673,126.973 181.010,127.058 181.094 C 127.236 181.272,130.859 180.083,130.859 179.846 C 130.859 179.601,130.415 179.699,128.589 180.345 M145.020 179.972 C 145.825 180.056,147.144 180.056,147.949 179.972 C 148.755 179.888,148.096 179.819,146.484 179.819 C 144.873 179.819,144.214 179.888,145.020 179.972 M141.313 180.354 C 141.799 180.448,142.502 180.444,142.876 180.347 C 143.249 180.249,142.852 180.172,141.992 180.177 C 141.133 180.181,140.827 180.261,141.313 180.354 M150.098 180.347 C 150.474 180.446,151.089 180.446,151.465 180.347 C 151.841 180.249,151.533 180.169,150.781 180.169 C 150.029 180.169,149.722 180.249,150.098 180.347 M153.125 180.859 C 154.461 181.287,155.488 181.287,154.492 180.859 C 154.063 180.675,153.359 180.529,152.930 180.535 C 152.302 180.544,152.340 180.608,153.125 180.859 M136.133 181.250 C 135.137 181.678,136.164 181.678,137.500 181.250 C 138.285 180.999,138.323 180.935,137.695 180.926 C 137.266 180.919,136.563 181.065,136.133 181.250 M162.500 180.981 C 162.500 181.072,163.247 181.639,164.160 182.241 C 165.073 182.843,165.614 183.086,165.362 182.781 C 164.877 182.195,162.500 180.699,162.500 180.981 M133.398 182.031 C 132.906 182.243,132.834 182.367,133.203 182.367 C 133.525 182.367,134.141 182.216,134.570 182.031 C 135.063 181.820,135.135 181.696,134.766 181.696 C 134.443 181.696,133.828 181.847,133.398 182.031 M160.111 183.601 C 164.438 185.898,163.830 185.781,164.627 184.473 L 165.281 183.398 164.513 184.276 L 163.745 185.153 160.486 183.403 C 158.693 182.441,157.051 181.654,156.836 181.655 C 156.621 181.655,158.095 182.531,160.111 183.601 M130.664 183.022 C 129.687 183.492,129.655 183.546,130.469 183.347 C 131.576 183.077,132.820 182.443,132.227 182.451 C 132.012 182.455,131.309 182.711,130.664 183.022 M34.894 185.352 C 34.896 186.855,34.966 187.423,35.051 186.612 C 35.135 185.802,35.134 184.571,35.048 183.878 C 34.961 183.185,34.892 183.848,34.894 185.352 M365.363 185.352 C 365.364 186.855,365.435 187.423,365.519 186.612 C 365.604 185.802,365.603 184.571,365.516 183.878 C 365.430 183.185,365.361 183.848,365.363 185.352 M124.104 185.418 C 122.214 186.186,120.734 186.879,120.813 186.959 C 120.952 187.098,127.759 184.463,128.092 184.141 C 128.514 183.734,127.252 184.138,124.104 185.418 M83.984 186.835 C 83.984 188.730,84.106 189.094,84.863 189.461 C 85.679 189.856,85.691 189.845,85.027 189.311 C 84.487 188.876,84.339 188.301,84.421 186.958 C 84.481 185.981,84.408 185.059,84.257 184.909 C 84.107 184.758,83.984 185.625,83.984 186.835 M87.500 187.301 C 87.500 187.568,89.892 188.754,90.070 188.575 C 90.155 188.491,89.612 188.129,88.862 187.772 C 88.113 187.414,87.500 187.203,87.500 187.301 M107.617 188.281 C 107.125 188.493,107.053 188.617,107.422 188.617 C 107.744 188.617,108.359 188.466,108.789 188.281 C 109.281 188.070,109.354 187.946,108.984 187.946 C 108.662 187.946,108.047 188.097,107.617 188.281 M34.511 191.406 C 34.511 193.232,34.579 193.979,34.661 193.066 C 34.743 192.153,34.743 190.659,34.661 189.746 C 34.579 188.833,34.511 189.580,34.511 191.406 M365.771 192.383 C 365.772 194.746,365.836 195.663,365.914 194.419 C 365.992 193.176,365.991 191.243,365.912 190.122 C 365.834 189.002,365.770 190.020,365.771 192.383 M104.688 189.063 C 103.902 189.314,103.864 189.378,104.492 189.387 C 104.922 189.393,105.625 189.247,106.055 189.063 C 107.050 188.635,106.023 188.635,104.688 189.063 M114.648 189.272 C 113.672 189.742,113.639 189.796,114.453 189.597 C 115.560 189.327,116.804 188.693,116.211 188.701 C 115.996 188.705,115.293 188.961,114.648 189.272 M101.660 189.722 C 102.036 189.821,102.651 189.821,103.027 189.722 C 103.403 189.624,103.096 189.544,102.344 189.544 C 101.592 189.544,101.284 189.624,101.660 189.722 M96.582 190.128 C 97.388 190.213,98.706 190.213,99.512 190.128 C 100.317 190.044,99.658 189.975,98.047 189.975 C 96.436 189.975,95.776 190.044,96.582 190.128 M107.227 191.613 C 106.367 191.896,106.016 192.128,106.445 192.128 C 106.875 192.128,107.842 191.891,108.594 191.602 C 110.347 190.926,109.282 190.935,107.227 191.613 M93.457 192.847 C 93.833 192.946,94.448 192.946,94.824 192.847 C 95.200 192.749,94.893 192.669,94.141 192.669 C 93.389 192.669,93.081 192.749,93.457 192.847 M96.973 193.253 C 97.778 193.338,99.097 193.338,99.902 193.253 C 100.708 193.169,100.049 193.100,98.438 193.100 C 96.826 193.100,96.167 193.169,96.973 193.253 M34.075 196.094 C 34.075 196.846,34.155 197.153,34.254 196.777 C 34.352 196.401,34.352 195.786,34.254 195.410 C 34.155 195.034,34.075 195.342,34.075 196.094 M145.225 195.599 C 146.144 195.682,147.550 195.680,148.350 195.596 C 149.150 195.513,148.398 195.445,146.680 195.446 C 144.961 195.448,144.306 195.517,145.225 195.599 M141.504 195.972 C 141.880 196.071,142.495 196.071,142.871 195.972 C 143.247 195.874,142.939 195.794,142.188 195.794 C 141.436 195.794,141.128 195.874,141.504 195.972 M152.724 196.302 C 154.330 196.592,155.705 196.769,155.779 196.695 C 155.998 196.476,152.007 195.700,150.860 195.738 C 150.279 195.758,151.119 196.011,152.724 196.302 M137.891 196.484 C 136.578 196.905,137.996 196.905,139.648 196.484 C 140.701 196.217,140.721 196.185,139.844 196.179 C 139.307 196.175,138.428 196.312,137.891 196.484 M134.961 197.266 C 134.469 197.477,134.396 197.601,134.766 197.601 C 135.088 197.601,135.703 197.450,136.133 197.266 C 136.625 197.054,136.697 196.930,136.328 196.930 C 136.006 196.930,135.391 197.081,134.961 197.266 M366.152 200.000 C 366.152 201.826,366.219 202.573,366.302 201.660 C 366.384 200.747,366.384 199.253,366.302 198.340 C 366.219 197.427,366.152 198.174,366.152 200.000 M132.227 198.047 C 131.734 198.258,131.662 198.383,132.031 198.383 C 132.354 198.383,132.969 198.232,133.398 198.047 C 133.891 197.835,133.963 197.711,133.594 197.711 C 133.271 197.711,132.656 197.862,132.227 198.047 M34.113 200.586 C 34.114 202.090,34.185 202.657,34.269 201.847 C 34.354 201.036,34.353 199.806,34.266 199.112 C 34.180 198.419,34.111 199.082,34.113 200.586 M128.979 199.095 C 128.053 199.423,127.364 199.760,127.448 199.844 C 127.627 200.022,131.250 198.833,131.250 198.596 C 131.250 198.351,130.806 198.449,128.979 199.095 M145.410 198.722 C 146.216 198.806,147.534 198.806,148.340 198.722 C 149.146 198.638,148.486 198.569,146.875 198.569 C 145.264 198.569,144.604 198.638,145.410 198.722 M141.704 199.104 C 142.190 199.198,142.893 199.194,143.266 199.097 C 143.640 198.999,143.242 198.922,142.383 198.927 C 141.523 198.931,141.218 199.011,141.704 199.104 M150.488 199.097 C 150.864 199.196,151.479 199.196,151.855 199.097 C 152.231 198.999,151.924 198.919,151.172 198.919 C 150.420 198.919,150.112 198.999,150.488 199.097 M153.516 199.609 C 154.851 200.037,155.878 200.037,154.883 199.609 C 154.453 199.425,153.750 199.279,153.320 199.285 C 152.692 199.294,152.731 199.358,153.516 199.609 M136.523 200.000 C 135.528 200.428,136.555 200.428,137.891 200.000 C 138.676 199.749,138.714 199.685,138.086 199.676 C 137.656 199.669,136.953 199.815,136.523 200.000 M162.891 199.731 C 162.891 199.822,163.638 200.389,164.551 200.991 C 165.464 201.593,166.005 201.836,165.753 201.531 C 165.268 200.945,162.891 199.449,162.891 199.731 M133.789 200.781 C 133.297 200.993,133.224 201.117,133.594 201.117 C 133.916 201.117,134.531 200.966,134.961 200.781 C 135.453 200.570,135.526 200.446,135.156 200.446 C 134.834 200.446,134.219 200.597,133.789 200.781 M160.501 202.351 C 164.829 204.648,164.221 204.531,165.017 203.223 L 165.671 202.148 164.903 203.026 L 164.135 203.903 160.876 202.153 C 159.084 201.191,157.441 200.404,157.227 200.405 C 157.012 200.405,158.485 201.281,160.501 202.351 M131.055 201.772 C 130.078 202.242,130.045 202.296,130.859 202.097 C 131.966 201.827,133.210 201.193,132.617 201.201 C 132.402 201.205,131.699 201.461,131.055 201.772 M124.494 204.168 C 122.605 204.936,121.124 205.629,121.204 205.709 C 121.342 205.848,128.150 203.213,128.483 202.891 C 128.905 202.484,127.643 202.888,124.494 204.168 M34.514 206.836 C 34.512 208.770,34.579 209.610,34.660 208.703 C 34.742 207.797,34.743 206.215,34.663 205.188 C 34.582 204.161,34.515 204.902,34.514 206.836 M84.375 205.585 C 84.375 207.480,84.497 207.844,85.254 208.211 C 86.069 208.606,86.081 208.595,85.418 208.061 C 84.878 207.626,84.729 207.051,84.812 205.708 C 84.872 204.731,84.798 203.809,84.648 203.659 C 84.498 203.508,84.375 204.375,84.375 205.585 M365.764 206.836 C 365.762 208.770,365.829 209.610,365.910 208.703 C 365.992 207.797,365.993 206.215,365.913 205.188 C 365.832 204.161,365.765 204.902,365.764 206.836 M87.891 206.051 C 87.891 206.318,90.282 207.504,90.461 207.325 C 90.546 207.241,90.002 206.879,89.253 206.522 C 88.504 206.164,87.891 205.953,87.891 206.051 M108.008 207.031 C 107.515 207.243,107.443 207.367,107.813 207.367 C 108.135 207.367,108.750 207.216,109.180 207.031 C 109.672 206.820,109.744 206.696,109.375 206.696 C 109.053 206.696,108.438 206.847,108.008 207.031 M105.078 207.813 C 104.293 208.064,104.255 208.128,104.883 208.137 C 105.313 208.143,106.016 207.997,106.445 207.813 C 107.441 207.385,106.414 207.385,105.078 207.813 M115.039 208.022 C 114.062 208.492,114.030 208.546,114.844 208.347 C 115.951 208.077,117.195 207.443,116.602 207.451 C 116.387 207.455,115.684 207.711,115.039 208.022 M102.051 208.472 C 102.427 208.571,103.042 208.571,103.418 208.472 C 103.794 208.374,103.486 208.294,102.734 208.294 C 101.982 208.294,101.675 208.374,102.051 208.472 M282.125 208.449 C 282.758 208.636,282.813 210.032,282.912 228.641 L 283.018 248.633 283.013 228.521 C 283.008 208.698,282.997 208.408,282.227 208.329 C 281.626 208.267,281.603 208.294,282.125 208.449 M96.973 208.878 C 97.778 208.963,99.097 208.963,99.902 208.878 C 100.708 208.794,100.049 208.725,98.438 208.725 C 96.826 208.725,96.167 208.794,96.973 208.878 M107.617 210.363 C 106.758 210.646,106.406 210.878,106.836 210.878 C 107.266 210.878,108.232 210.641,108.984 210.352 C 110.737 209.676,109.673 209.685,107.617 210.363 M34.883 212.500 C 34.883 213.682,34.956 214.165,35.045 213.574 C 35.135 212.983,35.135 212.017,35.045 211.426 C 34.956 210.835,34.883 211.318,34.883 212.500 M365.351 212.500 C 365.351 213.682,365.425 214.165,365.514 213.574 C 365.604 212.983,365.604 212.017,365.514 211.426 C 365.425 210.835,365.351 211.318,365.351 212.500 M93.848 211.597 C 94.224 211.696,94.839 211.696,95.215 211.597 C 95.591 211.499,95.283 211.419,94.531 211.419 C 93.779 211.419,93.472 211.499,93.848 211.597 M97.363 212.003 C 98.169 212.088,99.487 212.088,100.293 212.003 C 101.099 211.919,100.439 211.850,98.828 211.850 C 97.217 211.850,96.558 211.919,97.363 212.003 M35.263 216.406 C 35.263 217.373,35.339 217.769,35.432 217.285 C 35.525 216.802,35.525 216.011,35.432 215.527 C 35.339 215.044,35.263 215.439,35.263 216.406 M364.950 216.406 C 364.950 217.373,365.026 217.769,365.119 217.285 C 365.213 216.802,365.213 216.011,365.119 215.527 C 365.026 215.044,364.950 215.439,364.950 216.406 M144.444 215.912 C 145.363 215.994,146.769 215.993,147.569 215.909 C 148.369 215.825,147.617 215.757,145.898 215.759 C 144.180 215.760,143.525 215.829,144.444 215.912 M140.723 216.285 C 141.099 216.383,141.714 216.383,142.090 216.285 C 142.466 216.187,142.158 216.106,141.406 216.106 C 140.654 216.106,140.347 216.187,140.723 216.285 M151.943 216.614 C 153.549 216.905,154.923 217.082,154.997 217.008 C 155.216 216.789,151.226 216.013,150.078 216.051 C 149.498 216.070,150.337 216.324,151.943 216.614 M137.109 216.797 C 135.796 217.217,137.215 217.217,138.867 216.797 C 139.920 216.529,139.940 216.498,139.063 216.491 C 138.525 216.487,137.646 216.625,137.109 216.797 M269.702 218.066 L 268.555 219.336 269.920 218.164 C 270.671 217.520,271.359 216.948,271.450 216.895 C 271.540 216.841,271.442 216.797,271.232 216.797 C 271.021 216.797,270.333 217.368,269.702 218.066 M134.180 217.578 C 133.687 217.790,133.615 217.914,133.984 217.914 C 134.307 217.914,134.922 217.763,135.352 217.578 C 135.844 217.367,135.916 217.242,135.547 217.242 C 135.225 217.242,134.609 217.393,134.180 217.578 M131.445 218.359 C 130.953 218.571,130.881 218.695,131.250 218.695 C 131.572 218.695,132.188 218.544,132.617 218.359 C 133.110 218.148,133.182 218.024,132.813 218.024 C 132.490 218.024,131.875 218.175,131.445 218.359 M35.645 219.727 C 35.650 220.586,35.730 220.892,35.823 220.406 C 35.917 219.920,35.913 219.217,35.815 218.843 C 35.717 218.470,35.641 218.867,35.645 219.727 M364.552 219.727 C 364.556 220.586,364.636 220.892,364.729 220.406 C 364.823 219.920,364.819 219.217,364.722 218.843 C 364.624 218.470,364.547 218.867,364.552 219.727 M128.198 219.407 C 127.272 219.735,126.583 220.072,126.667 220.157 C 126.845 220.335,130.469 219.145,130.469 218.909 C 130.469 218.664,130.024 218.762,128.198 219.407 M144.629 219.035 C 145.435 219.119,146.753 219.119,147.559 219.035 C 148.364 218.950,147.705 218.881,146.094 218.881 C 144.482 218.881,143.823 218.950,144.629 219.035 M140.923 219.417 C 141.408 219.510,142.112 219.507,142.485 219.409 C 142.858 219.311,142.461 219.235,141.602 219.239 C 140.742 219.243,140.437 219.323,140.923 219.417 M149.707 219.410 C 150.083 219.508,150.698 219.508,151.074 219.410 C 151.450 219.312,151.143 219.231,150.391 219.231 C 149.639 219.231,149.331 219.312,149.707 219.410 M152.734 219.922 C 154.070 220.350,155.097 220.350,154.102 219.922 C 153.672 219.737,152.969 219.591,152.539 219.598 C 151.911 219.607,151.949 219.670,152.734 219.922 M135.742 220.313 C 134.747 220.740,135.774 220.740,137.109 220.313 C 137.894 220.061,137.933 219.997,137.305 219.988 C 136.875 219.982,136.172 220.128,135.742 220.313 M162.109 220.043 C 162.109 220.134,162.856 220.701,163.770 221.304 C 164.683 221.906,165.223 222.149,164.971 221.844 C 164.487 221.257,162.109 219.761,162.109 220.043 M133.008 221.094 C 132.515 221.305,132.443 221.429,132.813 221.429 C 133.135 221.429,133.750 221.278,134.180 221.094 C 134.672 220.882,134.744 220.758,134.375 220.758 C 134.053 220.758,133.438 220.909,133.008 221.094 M159.720 222.664 C 164.048 224.961,163.439 224.844,164.236 223.535 L 164.890 222.461 164.122 223.338 L 163.354 224.216 160.095 222.466 C 158.302 221.504,156.660 220.717,156.445 220.717 C 156.230 220.718,157.704 221.594,159.720 222.664 M130.273 222.084 C 129.297 222.555,129.264 222.609,130.078 222.410 C 131.185 222.139,132.429 221.505,131.836 221.514 C 131.621 221.517,130.918 221.774,130.273 222.084 M123.713 224.481 C 121.824 225.249,120.343 225.942,120.422 226.021 C 120.561 226.160,127.368 223.525,127.702 223.204 C 128.124 222.797,126.862 223.201,123.713 224.481 M84.375 226.539 C 84.375 227.601,84.507 228.551,84.668 228.651 C 84.829 228.751,84.899 227.955,84.823 226.881 L 84.685 224.929 85.800 225.597 L 86.914 226.265 85.938 225.446 C 84.537 224.271,84.375 224.384,84.375 226.539 M87.109 226.363 C 87.109 226.631,89.501 227.817,89.680 227.638 C 89.765 227.553,89.221 227.191,88.472 226.834 C 87.722 226.477,87.109 226.265,87.109 226.363 M107.227 227.344 C 106.734 227.555,106.662 227.679,107.031 227.679 C 107.354 227.679,107.969 227.528,108.398 227.344 C 108.891 227.132,108.963 227.008,108.594 227.008 C 108.271 227.008,107.656 227.159,107.227 227.344 M104.297 228.125 C 103.512 228.376,103.474 228.440,104.102 228.449 C 104.531 228.456,105.234 228.310,105.664 228.125 C 106.659 227.697,105.632 227.697,104.297 228.125 M114.258 228.334 C 113.281 228.805,113.248 228.859,114.063 228.660 C 115.169 228.389,116.413 227.755,115.820 227.764 C 115.605 227.767,114.902 228.024,114.258 228.334 M101.270 228.785 C 101.646 228.883,102.261 228.883,102.637 228.785 C 103.013 228.687,102.705 228.606,101.953 228.606 C 101.201 228.606,100.894 228.687,101.270 228.785 M96.191 229.191 C 96.997 229.275,98.315 229.275,99.121 229.191 C 99.927 229.107,99.268 229.038,97.656 229.038 C 96.045 229.038,95.386 229.107,96.191 229.191 M106.836 230.675 C 105.977 230.958,105.625 231.190,106.055 231.190 C 106.484 231.190,107.451 230.954,108.203 230.664 C 109.956 229.989,108.892 229.997,106.836 230.675 M213.843 241.211 C 213.843 247.012,213.897 249.439,213.964 246.605 C 214.030 243.772,214.030 239.025,213.964 236.059 C 213.898 233.092,213.843 235.410,213.843 241.211 M93.066 231.910 C 93.442 232.008,94.058 232.008,94.434 231.910 C 94.810 231.812,94.502 231.731,93.750 231.731 C 92.998 231.731,92.690 231.812,93.066 231.910 M96.582 232.316 C 97.388 232.400,98.706 232.400,99.512 232.316 C 100.317 232.232,99.658 232.163,98.047 232.163 C 96.436 232.163,95.776 232.232,96.582 232.316 M145.225 236.615 C 146.144 236.697,147.550 236.696,148.350 236.612 C 149.150 236.528,148.398 236.461,146.680 236.462 C 144.961 236.463,144.306 236.532,145.225 236.615 M141.504 236.988 C 141.880 237.086,142.495 237.086,142.871 236.988 C 143.247 236.890,142.939 236.809,142.188 236.809 C 141.436 236.809,141.128 236.890,141.504 236.988 M152.724 237.317 C 154.330 237.608,155.705 237.785,155.779 237.711 C 155.998 237.492,152.007 236.716,150.860 236.754 C 150.279 236.773,151.119 237.027,152.724 237.317 M137.891 237.500 C 136.578 237.920,137.996 237.920,139.648 237.500 C 140.701 237.232,140.721 237.201,139.844 237.195 C 139.307 237.191,138.428 237.328,137.891 237.500 M134.961 238.281 C 134.469 238.493,134.396 238.617,134.766 238.617 C 135.088 238.617,135.703 238.466,136.133 238.281 C 136.625 238.070,136.697 237.946,136.328 237.946 C 136.006 237.946,135.391 238.097,134.961 238.281 M132.227 239.063 C 131.734 239.274,131.662 239.398,132.031 239.398 C 132.354 239.398,132.969 239.247,133.398 239.063 C 133.891 238.851,133.963 238.727,133.594 238.727 C 133.271 238.727,132.656 238.878,132.227 239.063 M128.979 240.111 C 128.053 240.438,127.364 240.775,127.448 240.860 C 127.627 241.038,131.250 239.848,131.250 239.612 C 131.250 239.367,130.806 239.465,128.979 240.111 M145.410 239.738 C 146.216 239.822,147.534 239.822,148.340 239.738 C 149.146 239.653,148.486 239.584,146.875 239.584 C 145.264 239.584,144.604 239.653,145.410 239.738 M141.704 240.120 C 142.190 240.213,142.893 240.210,143.266 240.112 C 143.640 240.014,143.242 239.938,142.383 239.942 C 141.523 239.947,141.218 240.027,141.704 240.120 M150.488 240.113 C 150.864 240.211,151.479 240.211,151.855 240.113 C 152.231 240.015,151.924 239.934,151.172 239.934 C 150.420 239.934,150.112 240.015,150.488 240.113 M153.516 240.625 C 154.851 241.053,155.878 241.053,154.883 240.625 C 154.453 240.440,153.750 240.294,153.320 240.301 C 152.692 240.310,152.731 240.374,153.516 240.625 M136.523 241.016 C 135.528 241.443,136.555 241.443,137.891 241.016 C 138.676 240.764,138.714 240.701,138.086 240.691 C 137.656 240.685,136.953 240.831,136.523 241.016 M162.891 240.746 C 162.891 240.837,163.638 241.405,164.551 242.007 C 165.464 242.609,166.005 242.852,165.753 242.547 C 165.268 241.960,162.891 240.465,162.891 240.746 M133.789 241.797 C 133.297 242.008,133.224 242.133,133.594 242.133 C 133.916 242.133,134.531 241.982,134.961 241.797 C 135.453 241.585,135.526 241.461,135.156 241.461 C 134.834 241.461,134.219 241.612,133.789 241.797 M160.501 243.367 C 164.829 245.664,164.221 245.547,165.017 244.238 L 165.671 243.164 164.903 244.041 L 164.135 244.919 160.876 243.169 C 159.084 242.207,157.441 241.420,157.227 241.420 C 157.012 241.421,158.485 242.297,160.501 243.367 M131.055 242.787 C 130.078 243.258,130.045 243.312,130.859 243.113 C 131.966 242.842,133.210 242.208,132.617 242.217 C 132.402 242.220,131.699 242.477,131.055 242.787 M124.494 245.184 C 122.605 245.952,121.124 246.645,121.204 246.724 C 121.342 246.863,128.150 244.229,128.483 243.907 C 128.905 243.500,127.643 243.904,124.494 245.184 M84.062 246.537 C 84.159 248.199,84.347 248.639,85.156 249.107 C 86.129 249.670,86.130 249.670,85.254 249.007 C 84.291 248.278,83.879 244.569,84.826 245.154 C 85.105 245.327,85.171 245.262,84.998 244.982 C 84.362 243.953,83.950 244.637,84.062 246.537 M87.891 247.067 C 87.891 247.334,90.282 248.520,90.461 248.341 C 90.546 248.256,90.002 247.895,89.253 247.537 C 88.504 247.180,87.891 246.968,87.891 247.067 M108.008 248.047 C 107.515 248.258,107.443 248.383,107.813 248.383 C 108.135 248.383,108.750 248.232,109.180 248.047 C 109.672 247.835,109.744 247.711,109.375 247.711 C 109.053 247.711,108.438 247.862,108.008 248.047 M105.078 248.828 C 104.293 249.080,104.255 249.143,104.883 249.152 C 105.313 249.159,106.016 249.013,106.445 248.828 C 107.441 248.400,106.414 248.400,105.078 248.828 M115.039 249.037 C 114.062 249.508,114.030 249.562,114.844 249.363 C 115.951 249.092,117.195 248.458,116.602 248.467 C 116.387 248.470,115.684 248.727,115.039 249.037 M102.051 249.488 C 102.427 249.586,103.042 249.586,103.418 249.488 C 103.794 249.390,103.486 249.309,102.734 249.309 C 101.982 249.309,101.675 249.390,102.051 249.488 M283.294 250.391 C 283.294 251.143,283.374 251.450,283.472 251.074 C 283.571 250.698,283.571 250.083,283.472 249.707 C 283.374 249.331,283.294 249.639,283.294 250.391 M96.973 249.894 C 97.778 249.978,99.097 249.978,99.902 249.894 C 100.708 249.810,100.049 249.741,98.438 249.741 C 96.826 249.741,96.167 249.810,96.973 249.894 M107.617 251.378 C 106.758 251.661,106.406 251.893,106.836 251.893 C 107.266 251.894,108.232 251.657,108.984 251.367 C 110.737 250.692,109.673 250.701,107.617 251.378 M93.848 252.613 C 94.224 252.711,94.839 252.711,95.215 252.613 C 95.591 252.515,95.283 252.434,94.531 252.434 C 93.779 252.434,93.472 252.515,93.848 252.613 M97.363 253.019 C 98.169 253.103,99.487 253.103,100.293 253.019 C 101.099 252.935,100.439 252.866,98.828 252.866 C 97.217 252.866,96.558 252.935,97.363 253.019 M179.577 256.881 C 179.445 257.014,178.756 257.259,178.047 257.427 C 176.926 257.693,176.888 257.738,177.757 257.773 C 178.307 257.795,179.098 257.554,179.515 257.239 C 179.932 256.924,180.171 256.660,180.046 256.653 C 179.920 256.646,179.709 256.749,179.577 256.881 M220.898 257.031 C 220.766 257.246,220.184 257.446,219.606 257.475 C 218.694 257.521,218.670 257.551,219.428 257.697 C 219.908 257.789,220.694 257.590,221.175 257.253 C 221.655 256.916,221.844 256.641,221.594 256.641 C 221.344 256.641,221.031 256.816,220.898 257.031 M288.965 257.698 C 289.448 257.791,290.239 257.791,290.723 257.698 C 291.206 257.604,290.811 257.528,289.844 257.528 C 288.877 257.528,288.481 257.604,288.965 257.698 M174.316 361.597 C 174.692 361.696,175.308 361.696,175.684 361.597 C 176.060 361.499,175.752 361.419,175.000 361.419 C 174.248 361.419,173.940 361.499,174.316 361.597 M224.707 361.597 C 225.083 361.696,225.698 361.696,226.074 361.597 C 226.450 361.499,226.143 361.419,225.391 361.419 C 224.639 361.419,224.331 361.499,224.707 361.597 M177.051 361.988 C 177.427 362.086,178.042 362.086,178.418 361.988 C 178.794 361.890,178.486 361.809,177.734 361.809 C 176.982 361.809,176.675 361.890,177.051 361.988 M221.973 361.988 C 222.349 362.086,222.964 362.086,223.340 361.988 C 223.716 361.890,223.408 361.809,222.656 361.809 C 221.904 361.809,221.597 361.890,221.973 361.988 M179.980 362.385 C 180.464 362.478,181.255 362.478,181.738 362.385 C 182.222 362.292,181.826 362.216,180.859 362.216 C 179.893 362.216,179.497 362.292,179.980 362.385 M218.652 362.385 C 219.136 362.478,219.927 362.478,220.410 362.385 C 220.894 362.292,220.498 362.216,219.531 362.216 C 218.564 362.216,218.169 362.292,218.652 362.385 M183.691 362.780 C 184.282 362.869,185.249 362.869,185.840 362.780 C 186.431 362.690,185.947 362.617,184.766 362.617 C 183.584 362.617,183.101 362.690,183.691 362.780 M214.551 362.780 C 215.142 362.869,216.108 362.869,216.699 362.780 C 217.290 362.690,216.807 362.617,215.625 362.617 C 214.443 362.617,213.960 362.690,214.551 362.780 M188.781 363.178 C 189.808 363.259,191.390 363.258,192.297 363.176 C 193.204 363.094,192.363 363.028,190.430 363.029 C 188.496 363.030,187.754 363.097,188.781 363.178 M208.313 363.178 C 209.340 363.259,210.922 363.258,211.828 363.176 C 212.735 363.094,211.895 363.028,209.961 363.029 C 208.027 363.030,207.286 363.097,208.313 363.178 M197.187 363.572 C 198.969 363.645,201.782 363.644,203.437 363.571 C 205.091 363.498,203.633 363.439,200.195 363.439 C 196.758 363.440,195.404 363.500,197.187 363.572 " stroke="none" fill="#35739c" fill-rule="evenodd"></path></g></svg>